<svg width="24" height="24" viewBox="0 0 24 24" fill="none" xmlns="http://www.w3.org/2000/svg">
<path d="M14.5 9.52901C14.5 8.73801 15.553 8.52801 15.832 9.26901C16.508 11.059 17 12.663 17 13.529C17 14.8551 16.4732 16.1269 15.5355 17.0645C14.5979 18.0022 13.3261 18.529 12 18.529C10.6739 18.529 9.40215 18.0022 8.46447 17.0645C7.52678 16.1269 7 14.8551 7 13.529C7 12.599 7.568 10.818 8.322 8.86601C9.297 6.33801 9.785 5.07401 10.388 5.00601C10.58 4.98401 10.791 5.02301 10.963 5.11301C11.5 5.39301 11.5 6.77201 11.5 9.52901C11.5 9.92684 11.658 10.3084 11.9393 10.5897C12.2206 10.871 12.6022 11.029 13 11.029C13.3978 11.029 13.7794 10.871 14.0607 10.5897C14.342 10.3084 14.5 9.92684 14.5 9.52901Z" stroke="#666666"/>
<path d="M11 18.529L10.737 17.872C10.5126 17.3126 10.4409 16.7036 10.5293 16.1074C10.6177 15.5112 10.863 14.9492 11.24 14.479C11.3312 14.365 11.4468 14.2729 11.5784 14.2097C11.71 14.1464 11.8541 14.1136 12 14.1136C12.146 14.1136 12.2901 14.1464 12.4217 14.2097C12.5532 14.2729 12.6689 14.365 12.76 14.479C13.526 15.437 13.718 16.733 13.263 17.872L13 18.529" stroke="#666666"/>
</svg>
