<svg width="24" height="24" viewBox="0 0 24 24" fill="none" xmlns="http://www.w3.org/2000/svg">
<path d="M11.9999 14.0843C12.2205 14.0843 12.4387 14.1343 12.6376 14.2298C12.8363 14.3253 13.0114 14.4649 13.1493 14.637H13.1503C14.0287 15.7356 14.2481 17.2226 13.7264 18.5286L13.4637 19.1858L12.9999 18.9993L12.535 18.8138L12.7987 18.1565C13.1623 17.2456 13.0412 16.2166 12.4862 15.4183L12.369 15.262C12.3249 15.2069 12.2686 15.1618 12.205 15.1311C12.1412 15.1006 12.0706 15.0843 11.9999 15.0843C11.9291 15.0843 11.8586 15.1005 11.7948 15.1311C11.7309 15.1619 11.674 15.2067 11.6298 15.262V15.263C11.3083 15.6639 11.0987 16.1433 11.0233 16.6517C10.948 17.16 11.0098 17.6796 11.201 18.1565L11.4637 18.8138L10.9999 18.9993L10.535 19.1858L10.2723 18.5286C10.0152 17.8873 9.9328 17.1887 10.0341 16.5052C10.1228 15.9069 10.3493 15.338 10.6942 14.844L10.8495 14.637C10.9874 14.4647 11.1624 14.3254 11.3612 14.2298C11.5602 14.1341 11.779 14.0843 11.9999 14.0843Z" fill="#E86524"/>
<path d="M14.5 10C14.5 9.209 15.553 8.999 15.832 9.74C16.508 11.53 17 13.134 17 14C17 15.3261 16.4732 16.5979 15.5355 17.5355C14.5979 18.4732 13.3261 19 12 19C10.6739 19 9.40215 18.4732 8.46447 17.5355C7.52678 16.5979 7 15.3261 7 14C7 13.07 7.568 11.289 8.322 9.337C9.297 6.809 9.785 5.545 10.388 5.477C10.58 5.455 10.791 5.494 10.963 5.584C11.5 5.864 11.5 7.243 11.5 10C11.5 10.3978 11.658 10.7794 11.9393 11.0607C12.2206 11.342 12.6022 11.5 13 11.5C13.3978 11.5 13.7794 11.342 14.0607 11.0607C14.342 10.7794 14.5 10.3978 14.5 10Z" stroke="#E67E22"/>
</svg>
